<?xml version="1.0" standalone="no"?>
<!DOCTYPE svg PUBLIC "-//W3C//DTD SVG 20010904//EN"
 "http://www.w3.org/TR/2001/REC-SVG-20010904/DTD/svg10.dtd">
<svg version="1.0"
    xmlns="http://www.w3.org/2000/svg" width="512.000000pt" height="512.000000pt" viewBox="0 0 512.000000 512.000000" preserveAspectRatio="xMidYMid meet">

    <g transform="translate(0.000000,512.000000) scale(0.100000,-0.100000)" fill="#000000" stroke="none">
        <path fill="#FFFFFF" d="M2267 3510 c-629 -47 -1245 -236 -1777 -547 -130 -76 -386 -250 -431
-293 -46 -43 -64 -103 -50 -158 7 -24 117 -176 312 -432 165 -217 313 -408
327 -424 31 -33 80 -56 120 -56 36 0 81 25 247 137 194 131 452 259 663 328
98 32 152 103 138 184 -3 20 -51 175 -105 346 -55 170 -98 311 -96 313 18 18
394 84 590 103 156 16 557 16 710 0 206 -21 572 -85 590 -103 2 -2 -41 -143
-96 -313 -54 -171 -102 -326 -105 -346 -14 -81 40 -152 138 -184 257 -84 516
-220 806 -423 79 -56 160 -52 220 11 17 17 166 210 331 427 195 256 305 408
312 433 14 54 -4 114 -50 157 -45 43 -301 217 -431 293 -492 287 -1024 461
-1625 532 -156 19 -574 27 -738 15z"/>
    </g>
</svg>
