<?xml version="1.0" standalone="no"?>
<!DOCTYPE svg PUBLIC "-//W3C//DTD SVG 20010904//EN"
 "http://www.w3.org/TR/2001/REC-SVG-20010904/DTD/svg10.dtd">
<svg version="1.0"
    xmlns="http://www.w3.org/2000/svg" width="512.000000pt" height="512.000000pt" viewBox="0 0 512.000000 512.000000" preserveAspectRatio="xMidYMid meet">

    <g transform="translate(0.000000,512.000000) scale(0.100000,-0.100000)" fill="#000000" stroke="none">
        <path fill="#FFFFFF" d="M1000 5113 c-181 -29 -268 -56 -400 -125 -192 -99 -369 -276 -468
-468 -57 -110 -83 -182 -109 -300 -17 -80 -18 -174 -18 -1660 0 -1486 1 -1580
18 -1660 56 -259 193 -486 392 -647 142 -114 302 -190 485 -230 80 -17 174
-18 1660 -18 1486 0 1580 1 1660 18 183 40 343 116 485 230 199 161 336 388
392 647 17 80 18 174 18 1660 0 1486 -1 1580 -18 1660 -26 118 -52 190 -109
300 -149 288 -421 495 -758 576 -70 17 -169 18 -1640 20 -861 1 -1576 0 -1590
-3z m3190 -335 c163 -49 272 -111 374 -214 105 -104 170 -220 214 -379 16 -55
17 -195 17 -1625 0 -1708 4 -1586 -55 -1742 -66 -178 -260 -372 -438 -438
-156 -59 -34 -55 -1742 -55 -1708 0 -1586 -4 -1742 55 -177 66 -372 261 -438
438 -59 157 -55 28 -58 1697 -2 1132 0 1549 9 1605 52 336 303 597 639 665 52
11 364 13 1615 12 1416 -2 1555 -4 1605 -19z"/>
        <path fill="#FFFFFF" d="M2495 4306 c-16 -8 -286 -271 -600 -585 l-570 -571 113 -112 112
-113 425 425 425 425 0 -1488 0 -1487 160 0 160 0 0 1487 0 1488 423 -423 422
-422 113 113 112 112 -573 572 c-315 315 -585 577 -600 582 -38 15 -86 13
-122 -3z"/>
    </g>
</svg>
